<?xml version="1.0" standalone="no"?>
<!DOCTYPE svg PUBLIC "-//W3C//DTD SVG 20010904//EN"
 "http://www.w3.org/TR/2001/REC-SVG-20010904/DTD/svg10.dtd">
<svg version="1.0" xmlns="http://www.w3.org/2000/svg"
 width="805.000000pt" height="805.000000pt" viewBox="0 0 805.000000 805.000000"
 preserveAspectRatio="xMidYMid meet">
<metadata>
Created by potrace 1.13, written by Peter Selinger 2001-2015
</metadata>
<g transform="translate(0.000000,805.000000) scale(0.100000,-0.100000)"
fill="#000000" stroke="none">
<path d="M2878 7980 c-68 -12 -98 -60 -98 -157 0 -44 -5 -62 -21 -79 -15 -16
-25 -48 -34 -111 -28 -180 -74 -304 -170 -452 -85 -131 -113 -242 -81 -324 25
-67 60 -94 136 -106 104 -17 103 -15 97 -266 -4 -162 -12 -259 -37 -425 -41
-279 -51 -567 -25 -705 22 -122 63 -219 145 -350 92 -147 112 -204 114 -325 0
-71 -6 -125 -26 -210 -46 -196 -60 -313 -65 -552 -6 -255 5 -401 42 -548 13
-52 25 -106 27 -120 2 -20 10 -26 38 -31 32 -6 30 -7 -13 -6 -55 0 -68 -10
-158 -121 -175 -217 -214 -477 -117 -769 25 -74 21 -72 108 -59 39 6 36 4 -25
-17 -134 -45 -139 -56 -71 -140 57 -71 65 -86 64 -133 0 -22 11 -63 25 -93 19
-41 23 -59 16 -73 -13 -25 32 -196 68 -258 79 -135 76 -123 69 -260 -3 -69
-11 -190 -16 -270 -8 -104 -7 -211 1 -375 6 -126 8 -259 5 -295 -8 -88 4 -109
79 -139 54 -22 83 -25 305 -34 399 -16 689 -14 801 6 74 13 127 15 220 11 98
-5 137 -3 187 10 35 9 68 14 73 10 5 -3 9 -1 9 4 0 5 23 19 50 32 28 13 70 42
93 63 58 55 97 77 132 77 l30 -1 -34 -29 c-44 -38 -35 -47 19 -20 79 41 48 15
-56 -45 -57 -33 -103 -63 -104 -67 0 -17 31 -5 143 52 124 64 162 76 106 34
-40 -31 -170 -94 -193 -94 -9 0 -16 -5 -16 -10 0 -12 47 -6 118 16 42 12 43
12 28 -5 -9 -10 -34 -27 -56 -37 -22 -10 -40 -23 -40 -28 0 -13 42 1 169 54
64 27 134 51 156 54 l40 6 -40 -15 c-22 -9 -44 -20 -48 -24 -9 -9 87 -8 187 3
45 5 48 4 24 -6 -32 -14 -38 -33 -8 -23 14 4 18 2 15 -7 -4 -11 11 -13 70 -12
41 1 75 -2 75 -5 0 -4 34 -5 75 -3 43 3 75 0 75 -5 0 -12 -77 -36 -89 -29 -4
3 -8 0 -8 -7 0 -9 43 -12 166 -12 149 0 161 -1 116 -11 -27 -7 -72 -13 -100
-14 l-50 -2 40 -10 c22 -5 79 -8 127 -6 49 2 82 1 75 -4 -6 -4 -23 -8 -37 -8
-23 -1 -23 -1 -6 -12 24 -14 99 2 175 37 50 23 53 27 48 54 -4 19 0 34 11 47
9 11 26 36 37 56 18 35 18 38 2 56 -21 24 -21 37 3 87 23 48 25 77 5 114 -13
27 -58 55 -99 63 -11 1 -19 6 -18 11 1 4 2 39 2 78 0 50 3 68 12 63 8 -5 9 3
3 32 -4 21 -9 63 -11 93 -10 155 -55 265 -140 339 -67 60 -119 72 -308 72
-139 0 -167 -3 -205 -20 -58 -27 -107 -25 -167 5 -71 36 -100 33 -121 -10 -12
-25 -23 -35 -40 -35 -13 0 -32 -9 -43 -20 -11 -11 -27 -20 -36 -20 -9 0 -25
-11 -36 -25 -14 -18 -29 -25 -53 -25 -87 0 -86 -120 1 -237 13 -17 24 -35 24
-40 0 -4 -6 0 -13 9 -7 9 -43 28 -79 43 -77 31 -112 59 -105 87 4 14 -11 35
-52 76 -59 60 -104 141 -191 347 -105 248 -174 354 -263 405 -73 42 -116 46
-237 21 -57 -12 -104 -21 -106 -21 -6 0 -38 73 -42 95 -8 45 -20 268 -21 377
-1 145 -1 144 -128 129 -48 -6 -88 -9 -90 -7 -7 7 96 26 137 26 38 0 39 1 54
53 25 88 54 219 77 348 l21 123 -26 22 c-16 14 -21 24 -13 27 9 3 12 55 12
203 0 165 -4 219 -23 319 -31 163 -87 390 -171 700 -96 355 -127 488 -145 636
-18 140 -33 198 -76 293 -30 67 -60 194 -80 331 -6 44 -24 148 -40 230 -16 83
-38 213 -49 290 -11 77 -32 210 -46 295 -22 128 -28 206 -35 450 -9 322 -19
395 -79 565 -22 60 -35 126 -45 216 -8 71 -18 134 -22 141 -7 11 -11 38 -34
233 -6 49 -12 90 -13 90 -1 1 -19 -2 -39 -5z m349 -6973 c86 -103 211 -209
392 -330 47 -32 83 -57 80 -57 -54 0 -288 -37 -356 -56 -122 -34 -129 -32
-125 34 2 29 -12 142 -32 259 -50 288 -47 261 -30 238 8 -11 40 -51 71 -88z"/>
</g>
</svg>
