<?xml version="1.0" standalone="no"?>
<!DOCTYPE svg PUBLIC "-//W3C//DTD SVG 20010904//EN"
 "http://www.w3.org/TR/2001/REC-SVG-20010904/DTD/svg10.dtd">
<svg version="1.0" xmlns="http://www.w3.org/2000/svg"
 width="651.000000pt" height="718.000000pt" viewBox="0 0 651.000000 718.000000"
 preserveAspectRatio="xMidYMid meet">
<metadata>
Created by potrace 1.13, written by Peter Selinger 2001-2015
</metadata>
<g transform="translate(0.000000,718.000000) scale(0.100000,-0.100000)"
fill="#000000" stroke="none">
<path d="M3285 5773 c-11 -2 -44 -9 -72 -14 -29 -6 -59 -16 -66 -23 -7 -7 -31
-25 -55 -40 -47 -29 -100 -96 -108 -135 -3 -14 -10 -37 -15 -50 -18 -44 -27
-112 -19 -145 5 -17 11 -61 14 -98 6 -63 5 -66 -14 -61 -29 8 -34 -16 -20 -94
13 -78 54 -170 77 -175 10 -2 22 -28 34 -75 10 -39 30 -90 45 -112 22 -34 26
-48 21 -83 -3 -23 -14 -53 -25 -67 -29 -39 -114 -101 -140 -101 -26 0 -122
-46 -122 -59 0 -4 -52 -21 -115 -36 -87 -21 -130 -37 -174 -65 -143 -93 -173
-193 -169 -561 l3 -224 -49 -185 c-82 -314 -116 -397 -216 -525 -34 -44 -109
-150 -166 -237 -109 -165 -212 -294 -312 -392 -57 -56 -63 -59 -98 -53 -21 4
-64 23 -97 43 -57 35 -66 38 -155 40 -78 3 -100 0 -130 -16 -20 -11 -42 -20
-48 -20 -6 0 -17 -6 -23 -14 -9 -11 -7 -18 13 -33 l25 -20 -30 -25 c-16 -15
-29 -35 -29 -45 0 -16 -6 -19 -30 -15 -32 5 -36 -2 -20 -42 14 -38 -14 -34
-30 4 -17 40 -33 52 -70 48 l-31 -3 30 -60 c38 -75 137 -165 182 -165 24 0 55
-13 88 -37 2 -2 -3 -11 -12 -21 -30 -33 -67 -128 -78 -203 -28 -179 45 -281
241 -336 54 -15 105 -18 295 -19 136 -1 262 -6 308 -14 54 -9 127 -11 232 -7
119 5 156 3 164 -7 8 -9 63 -15 198 -19 104 -3 272 -12 376 -18 169 -12 192
-11 240 4 28 9 65 16 80 15 15 0 77 5 137 12 l109 13 53 -29 c44 -24 64 -29
118 -28 37 0 87 8 115 19 56 21 228 23 490 6 172 -11 361 1 541 34 96 18 168
25 259 25 257 0 392 29 471 102 62 57 88 125 81 213 -6 82 -35 166 -77 224
-30 41 -30 41 -7 41 13 0 32 7 43 15 10 8 33 15 50 15 56 0 162 102 202 193
16 37 16 37 -14 37 -37 0 -60 -15 -74 -50 -16 -38 -44 -43 -30 -4 16 41 13 47
-20 41 -25 -6 -30 -3 -30 14 0 11 -15 33 -32 50 -18 16 -27 29 -21 29 16 0 44
30 38 40 -3 5 -30 20 -59 33 -48 22 -67 25 -149 23 -89 -3 -97 -5 -154 -40
-33 -20 -76 -39 -97 -43 -36 -6 -41 -3 -103 58 -92 91 -212 242 -307 388 -45
69 -119 176 -164 236 -95 127 -130 207 -191 427 -77 283 -84 326 -76 488 9
180 7 234 -10 332 -29 166 -126 268 -289 302 -95 21 -150 39 -159 53 -10 15
-93 53 -118 53 -17 0 -19 8 -19 68 -1 83 -16 127 -65 186 l-37 46 56 -25 c68
-30 71 -23 26 75 l-30 65 30 -35 c17 -19 42 -57 55 -84 14 -28 25 -43 25 -35
0 12 2 12 10 -1 7 -11 10 -8 10 16 0 45 -25 120 -54 165 -29 43 -33 64 -11 55
51 -21 50 -21 27 15 -20 32 -20 40 -10 101 12 77 7 103 -22 95 -25 -6 -25 1
-4 101 9 43 14 99 11 127 -6 63 -73 199 -119 241 -70 67 -242 117 -333 97z
m752 -2670 c66 -155 86 -209 109 -288 31 -112 57 -147 247 -339 192 -195 323
-300 535 -432 61 -38 111 -72 112 -75 0 -4 -33 0 -72 7 -216 42 -249 45 -441
42 -185 -3 -194 -4 -250 -30 -32 -15 -55 -23 -53 -19 3 5 19 14 36 21 47 20
35 30 -35 30 -69 0 -119 15 -149 45 -15 16 -34 19 -120 18 l-101 -1 92 9 c51
5 104 14 118 19 25 10 25 10 9 47 -9 21 -32 83 -51 137 -26 77 -33 108 -28
139 6 33 2 47 -29 97 -32 52 -35 61 -25 84 10 21 9 40 -4 94 -12 52 -15 109
-12 253 3 168 6 190 26 232 13 26 25 45 27 42 3 -3 29 -62 59 -132z m-1313 24
c39 -102 48 -284 19 -357 -6 -14 -8 -60 -5 -102 4 -71 2 -82 -27 -143 -24 -50
-30 -73 -26 -99 9 -45 -37 -191 -75 -242 -56 -74 -38 -91 113 -105 56 -5 104
-12 107 -16 3 -3 -46 -3 -108 0 -109 4 -114 4 -137 -19 -20 -20 -34 -24 -87
-24 l-63 -1 48 -25 c66 -34 59 -38 -10 -6 -39 17 -80 28 -126 30 -87 5 -430
-15 -572 -33 -60 -8 -116 -15 -124 -15 -8 0 25 25 73 55 239 150 398 276 564
447 192 198 206 217 241 326 33 102 161 382 173 376 3 -2 14 -23 22 -47z"/>
</g>
</svg>
