<?xml version="1.0" standalone="no"?>
<!DOCTYPE svg PUBLIC "-//W3C//DTD SVG 20010904//EN"
 "http://www.w3.org/TR/2001/REC-SVG-20010904/DTD/svg10.dtd">
<svg version="1.0" xmlns="http://www.w3.org/2000/svg"
 width="876.000000pt" height="876.000000pt" viewBox="0 0 876.000000 876.000000"
 preserveAspectRatio="xMidYMid meet">
<metadata>
Created by potrace 1.13, written by Peter Selinger 2001-2015
</metadata>
<g transform="translate(0.000000,876.000000) scale(0.100000,-0.100000)"
fill="#000000" stroke="none">
<path d="M4329 8307 c-108 -25 -220 -120 -257 -218 -27 -72 -34 -275 -13 -365
14 -61 14 -61 -17 -129 -40 -85 -41 -103 -2 -116 17 -6 30 -14 31 -17 0 -4 2
-20 3 -36 1 -16 7 -31 14 -34 7 -2 12 -15 12 -28 0 -13 9 -29 20 -36 11 -7 25
-30 31 -50 5 -20 16 -44 25 -53 20 -20 75 -19 122 1 94 41 131 34 158 -32 27
-65 13 -194 -21 -194 -8 0 -24 -19 -36 -42 -27 -55 -103 -168 -194 -288 -153
-203 -232 -339 -260 -447 -25 -96 -22 -114 35 -167 27 -25 46 -46 42 -46 -5 0
-31 21 -59 48 -64 59 -85 122 -82 239 2 43 -1 116 -5 163 -4 47 -7 95 -7 108
1 13 -4 33 -10 44 -10 19 -11 19 -31 1 -37 -33 -48 -69 -47 -149 1 -43 -3 -80
-9 -86 -12 -12 -83 57 -206 202 -72 85 -116 123 -153 135 -19 5 -23 2 -23 -15
0 -29 14 -54 70 -125 49 -63 64 -85 57 -85 -2 0 -27 31 -55 68 -57 77 -124
142 -147 142 -19 0 -19 -36 -1 -72 16 -31 11 -35 -18 -13 -11 8 -26 15 -33 15
-28 0 -11 -53 43 -132 80 -116 107 -161 95 -154 -5 4 -24 29 -42 56 -64 99
-123 105 -78 8 41 -88 135 -230 187 -283 27 -27 70 -76 96 -108 25 -32 72 -77
103 -101 32 -23 71 -59 86 -80 16 -20 97 -105 180 -189 83 -84 140 -142 126
-129 -14 12 -29 22 -35 22 -5 0 -10 -37 -11 -82 0 -46 -3 -123 -5 -173 -2 -49
2 -124 9 -165 7 -41 11 -98 7 -126 -4 -37 -2 -60 10 -83 16 -30 15 -33 -9 -78
-52 -98 -25 -125 91 -93 96 27 109 19 15 -9 -62 -19 -76 -28 -125 -83 -59 -65
-67 -89 -39 -120 14 -16 14 -18 1 -13 -17 7 -56 -39 -213 -255 -126 -172 -249
-358 -288 -435 -27 -53 -31 -70 -31 -145 0 -47 5 -102 13 -122 22 -65 108
-164 374 -432 283 -285 356 -372 422 -510 65 -136 96 -311 130 -746 18 -225
19 -238 45 -543 11 -125 20 -269 20 -320 0 -85 -2 -95 -30 -137 -69 -105 -134
-156 -325 -253 -193 -99 -233 -115 -281 -116 -17 -1 -48 -12 -68 -26 -21 -14
-51 -25 -71 -25 -25 0 -35 -5 -40 -20 -17 -52 26 -80 122 -80 29 0 70 -7 91
-16 54 -24 346 -29 467 -8 104 18 196 19 292 4 131 -21 205 8 244 95 25 55 24
106 -8 243 -25 106 -28 135 -28 312 0 220 17 348 66 509 47 152 63 258 63 431
1 222 -19 313 -112 525 -44 99 -85 235 -84 276 0 15 16 77 36 138 75 238 133
589 143 864 l6 187 -24 1 c-13 1 -7 4 16 8 l40 6 8 75 c8 77 10 80 115 283 56
109 72 166 72 266 0 108 -49 236 -142 374 l-39 57 -30 -16 c-33 -16 -172 -54
-198 -53 -9 0 29 15 84 33 170 56 181 66 141 125 -14 20 -34 59 -44 86 -18 44
-18 54 -6 75 19 35 17 60 -6 95 -24 36 -26 87 -5 119 12 18 13 30 5 50 -10 28
6 111 37 184 12 30 14 59 9 145 -6 105 -5 112 35 255 22 81 54 188 69 237 61
190 64 211 64 375 0 137 -3 166 -27 254 -37 133 -81 216 -128 239 -30 14 -42
31 -68 88 -70 155 -70 251 -3 304 7 6 14 20 15 33 2 29 8 21 48 -70 20 -46 43
-82 56 -89 12 -7 20 -15 18 -19 -3 -5 2 -11 11 -14 9 -4 15 -9 12 -11 -3 -3
13 -24 34 -47 21 -23 41 -52 44 -65 4 -13 10 -20 16 -17 5 3 7 12 4 20 -14 37
40 -8 63 -53 6 -12 11 -33 11 -48 0 -36 41 -55 66 -31 13 14 19 15 25 5 16
-26 19 -1 6 39 l-14 41 23 -16 c16 -10 24 -11 24 -4 0 8 10 6 31 -4 17 -9 33
-14 36 -12 2 3 -8 29 -24 59 -38 72 -39 75 -18 58 16 -14 17 -13 11 8 -5 13
-3 22 3 22 24 0 8 22 -36 50 -27 16 -44 30 -40 30 9 0 73 -34 99 -52 33 -24
30 2 -8 69 -35 61 -45 71 -104 100 l-65 33 58 0 c31 0 57 4 57 9 0 5 -23 30
-51 55 -28 25 -48 46 -44 46 12 0 78 -41 105 -66 17 -15 30 -20 39 -15 21 13
-42 97 -100 134 -56 34 -63 51 -19 45 45 -7 37 4 -30 42 -57 32 -80 56 -42 44
10 -4 4 6 -15 24 -17 17 -39 43 -49 59 l-18 28 22 -19 c26 -23 38 -16 22 13
-6 12 -8 26 -5 32 4 5 -5 19 -20 31 -15 12 -40 49 -55 82 -37 82 -58 99 -129
104 -43 3 -66 0 -92 -14 -48 -26 -76 -26 -103 -1 -48 45 -81 69 -105 79 -40
16 -277 20 -342 5z m-105 -4659 c3 -35 9 -112 12 -173 4 -102 4 -107 -9 -73
-26 68 -67 126 -123 176 l-56 50 34 11 c18 6 53 24 78 41 25 16 48 29 51 29 3
1 9 -27 13 -61z"/>
</g>
</svg>
