<?xml version="1.0" standalone="no"?>
<!DOCTYPE svg PUBLIC "-//W3C//DTD SVG 20010904//EN"
 "http://www.w3.org/TR/2001/REC-SVG-20010904/DTD/svg10.dtd">
<svg version="1.0" xmlns="http://www.w3.org/2000/svg"
 width="746.000000pt" height="746.000000pt" viewBox="0 0 746.000000 746.000000"
 preserveAspectRatio="xMidYMid meet">
<metadata>
Created by potrace 1.13, written by Peter Selinger 2001-2015
</metadata>
<g transform="translate(0.000000,746.000000) scale(0.100000,-0.100000)"
fill="#000000" stroke="none">
<path d="M3287 7376 c-112 -40 -201 -131 -226 -231 -6 -22 -22 -78 -36 -125
-19 -62 -25 -102 -23 -150 1 -36 -1 -70 -5 -76 -3 -6 2 -19 13 -29 27 -25 26
-32 -18 -90 -55 -73 -57 -82 -22 -115 25 -23 29 -34 24 -55 -4 -15 -2 -36 3
-48 25 -54 35 -95 34 -132 -1 -31 4 -46 21 -62 33 -29 59 -33 158 -20 83 10
91 10 110 -8 32 -29 41 -50 34 -83 -4 -19 -14 -33 -28 -37 -11 -4 -104 -10
-206 -15 -203 -9 -320 -33 -445 -89 -91 -42 -143 -49 -375 -57 -162 -5 -229
-3 -318 10 -62 9 -145 16 -185 16 -87 0 -444 -39 -734 -80 -224 -32 -442 -40
-516 -19 -39 11 -46 9 -167 -30 -36 -12 -73 -21 -83 -21 -30 0 -187 -72 -187
-86 0 -23 20 -24 228 -10 84 6 73 -3 -17 -15 -72 -9 -131 -31 -131 -50 0 -15
64 -39 102 -39 272 1 344 6 427 34 80 27 91 29 200 23 64 -3 213 -20 331 -37
323 -45 451 -53 745 -46 210 6 287 4 400 -10 135 -15 316 -15 447 2 38 5 49 3
54 -10 9 -22 -93 -223 -183 -361 -74 -114 -78 -122 -81 -186 -5 -91 19 -147
85 -191 103 -71 117 -91 147 -218 42 -182 48 -235 37 -309 -6 -36 -20 -85 -31
-108 -36 -75 -26 -95 55 -112 l50 -10 -49 2 -48 2 -18 -55 c-25 -79 -41 -110
-57 -110 -8 0 -29 -16 -46 -35 -17 -19 -38 -35 -48 -35 -9 0 -22 -6 -28 -14
-16 -19 -89 -37 -181 -45 -67 -5 -75 -8 -78 -27 -2 -16 -8 -20 -22 -17 -43 11
-413 -91 -842 -234 -249 -82 -283 -102 -336 -191 -25 -43 -27 -56 -27 -147 0
-98 1 -103 52 -227 30 -72 61 -170 72 -225 45 -220 64 -704 41 -1027 -18 -250
-67 -311 -374 -473 -103 -55 -157 -77 -198 -83 -33 -5 -70 -18 -84 -29 -15
-12 -41 -21 -60 -21 -28 0 -35 -5 -40 -25 -4 -14 -1 -32 6 -40 17 -20 74 -35
113 -28 20 3 49 -2 72 -12 59 -26 293 -30 456 -8 111 15 140 15 236 4 124 -15
160 -10 204 26 65 55 73 120 38 289 -25 121 -28 312 -5 429 48 257 90 433 117
492 55 123 62 290 19 460 -27 106 -44 146 -97 231 -25 40 -43 75 -41 77 2 2
44 -3 93 -11 119 -20 372 -20 555 0 80 8 196 18 258 22 112 7 112 7 113 33 1
24 2 23 10 -7 17 -58 36 -59 241 -17 219 45 372 55 485 32 58 -13 83 -25 135
-65 35 -27 97 -72 138 -100 41 -29 88 -62 103 -74 27 -22 29 -22 59 -5 23 13
28 14 19 3 -11 -13 9 -26 136 -89 81 -41 191 -97 243 -124 52 -26 128 -63 168
-82 61 -28 85 -47 160 -129 154 -169 495 -458 689 -586 77 -50 126 -93 200
-173 269 -292 324 -343 516 -476 160 -110 559 -475 596 -545 20 -37 5 -264
-21 -327 -20 -48 -26 -133 -13 -175 11 -33 58 -40 248 -34 214 6 223 10 212
84 -4 25 -22 97 -40 160 -44 155 -55 210 -55 281 0 96 -5 103 -260 399 -45 52
-107 137 -138 188 -32 51 -93 148 -137 215 -44 67 -102 158 -130 202 -56 90
-194 239 -302 325 -39 32 -131 88 -205 125 -73 38 -159 86 -192 108 -94 64
-303 279 -428 442 -175 228 -307 383 -411 481 -52 49 -110 112 -129 139 -138
200 -128 188 -151 168 -21 -17 -21 -16 1 8 12 14 22 32 22 41 0 13 -46 81 -67
100 -5 3 -54 51 -110 106 -74 72 -123 132 -177 215 l-76 116 -47 4 c-42 3 -40
4 17 5 78 3 101 13 82 39 -26 38 -29 68 -27 368 l1 310 31 115 c18 63 37 149
43 190 14 98 50 198 87 246 16 22 62 85 101 140 86 123 116 149 187 165 47 10
73 9 201 -11 137 -21 164 -22 414 -16 228 7 282 5 368 -9 156 -26 485 -17 697
19 88 15 209 31 269 35 105 6 112 5 190 -23 75 -28 92 -30 226 -31 80 -1 166
-5 192 -9 51 -9 124 10 148 39 18 21 -36 44 -132 56 -46 6 -85 12 -87 15 -9 8
108 4 133 -6 14 -5 35 -6 47 -1 12 4 39 3 60 -3 33 -8 42 -7 56 7 12 11 14 20
7 27 -17 17 -122 55 -274 100 -150 44 -147 43 -181 31 -45 -16 -294 -14 -425
3 -60 8 -163 26 -228 41 -328 70 -510 90 -693 75 -88 -7 -177 -6 -353 6 -273
17 -333 28 -461 82 -52 22 -116 44 -144 51 -66 14 -229 31 -304 31 -51 0 -62
3 -71 21 -6 11 -9 25 -6 32 3 9 5 9 5 0 1 -7 5 -13 11 -13 5 0 6 8 3 17 -5 12
-2 15 10 10 29 -11 19 20 -19 63 -20 22 -32 40 -26 40 12 0 82 -77 82 -91 0
-5 5 -7 11 -4 13 9 3 95 -17 145 -8 19 -38 57 -67 83 -41 38 -46 45 -22 34 17
-8 45 -17 63 -20 31 -6 33 -5 26 16 -3 12 -19 41 -35 65 -16 24 -29 46 -29 49
0 11 52 -40 82 -81 35 -48 61 -57 52 -18 -12 50 -41 108 -73 144 -38 44 -40
63 -6 54 36 -9 31 4 -20 54 -46 45 -56 64 -30 54 21 -8 19 1 -10 44 -14 20
-25 46 -25 57 1 18 1 19 11 3 16 -28 29 -21 23 12 -4 19 -2 30 4 30 7 0 1 20
-12 44 -13 24 -26 72 -30 106 -6 53 -13 69 -40 96 -42 42 -105 61 -157 47 -44
-12 -89 -6 -89 11 0 6 -13 27 -30 46 -16 19 -29 41 -30 48 0 22 -92 72 -190
103 -63 20 -125 31 -185 35 -79 4 -99 2 -158 -20z"/>
</g>
</svg>
