<?xml version="1.0" standalone="no"?>
<!DOCTYPE svg PUBLIC "-//W3C//DTD SVG 20010904//EN"
 "http://www.w3.org/TR/2001/REC-SVG-20010904/DTD/svg10.dtd">
<svg version="1.0" xmlns="http://www.w3.org/2000/svg"
 width="625.000000pt" height="625.000000pt" viewBox="0 0 625.000000 625.000000"
 preserveAspectRatio="xMidYMid meet">
<metadata>
Created by potrace 1.13, written by Peter Selinger 2001-2015
</metadata>
<g transform="translate(0.000000,625.000000) scale(0.100000,-0.100000)"
fill="#000000" stroke="none">
<path d="M1782 4679 c-56 -27 -63 -29 -84 -16 -73 46 -376 9 -515 -61 -57 -29
-126 -110 -152 -179 -31 -78 -39 -200 -18 -251 9 -20 20 -72 26 -115 6 -43 20
-95 31 -117 11 -22 20 -46 20 -53 0 -8 9 -17 20 -20 17 -4 20 -14 20 -59 0
-29 -5 -70 -11 -91 -14 -50 6 -84 52 -89 27 -2 34 -9 44 -37 6 -19 21 -38 33
-42 12 -5 22 -15 22 -22 0 -8 11 -19 25 -25 13 -6 33 -29 44 -50 34 -67 58
-67 177 -7 91 47 122 52 209 37 39 -7 40 -8 57 -73 20 -78 57 -165 97 -229 22
-35 31 -66 40 -142 6 -55 31 -166 57 -255 86 -292 93 -324 103 -491 15 -239
72 -477 200 -837 27 -76 48 -142 45 -146 -8 -13 -104 -29 -174 -29 -38 0 -84
-6 -102 -14 -18 -8 -69 -26 -113 -41 -291 -97 -288 -96 -268 -116 17 -18 27
-18 115 -9 56 5 169 7 274 2 284 -11 313 -10 379 23 48 23 61 35 77 72 19 44
19 44 -2 151 -14 71 -24 179 -31 322 -5 118 -14 269 -20 335 -6 66 -14 176
-19 245 -6 94 -14 143 -34 199 -14 41 -26 78 -26 82 0 4 28 -2 63 -13 47 -15
106 -22 242 -28 171 -8 454 -48 496 -70 9 -5 24 -31 34 -57 32 -88 115 -234
254 -447 206 -315 270 -428 321 -555 l19 -49 -26 -7 c-14 -3 -56 -24 -92 -46
-95 -57 -220 -116 -265 -126 -47 -10 -55 -24 -27 -52 17 -17 33 -21 79 -20 31
0 66 4 77 8 15 6 22 3 30 -13 15 -30 47 -31 75 -1 14 15 34 25 51 25 23 0 28
-5 31 -27 2 -22 9 -29 30 -31 23 -3 32 3 49 32 12 20 25 36 29 36 22 0 40 -14
40 -30 0 -23 24 -43 47 -38 10 2 24 16 32 32 12 26 17 28 58 23 24 -2 52 -12
62 -21 10 -9 27 -16 39 -16 35 0 28 43 -13 89 -35 38 -35 39 -33 122 3 83 2
85 -39 153 -25 41 -60 123 -87 205 -46 141 -96 304 -96 315 0 4 33 -18 73 -48
90 -67 129 -86 240 -120 78 -24 95 -33 144 -82 31 -30 83 -71 117 -90 34 -20
68 -45 77 -56 13 -17 19 -19 37 -9 12 7 22 18 22 26 0 8 6 15 14 15 23 0 76
53 76 77 0 12 5 25 10 28 6 4 10 14 9 23 -1 10 2 25 6 35 6 15 -2 28 -34 57
-22 21 -41 47 -41 57 0 22 -33 69 -151 214 -119 148 -150 199 -111 184 9 -4
100 -10 202 -14 155 -6 193 -11 232 -29 119 -53 270 -76 334 -52 20 8 36 8 56
-1 24 -10 32 -9 48 6 27 24 25 67 -2 93 -25 22 -104 61 -127 62 -7 0 -31 16
-52 35 -51 45 -117 78 -212 104 -44 12 -91 28 -106 36 -45 23 -129 104 -176
169 -54 75 -111 131 -148 145 -16 6 -48 11 -72 11 -59 0 -99 -36 -124 -110
l-18 -55 -44 3 c-56 4 -321 91 -313 103 3 5 20 9 39 9 53 0 254 28 320 45 98
25 306 117 315 140 7 18 8 18 20 -5 7 -14 14 -26 15 -28 7 -8 208 65 265 96
85 46 179 141 219 220 45 90 62 163 62 277 0 178 -62 351 -167 464 -77 84 -86
84 -161 6 -34 -36 -65 -65 -68 -65 -3 0 16 26 43 58 26 32 59 76 72 97 22 35
22 39 6 50 -9 7 -35 15 -57 19 -23 4 -84 26 -137 50 -104 48 -214 83 -357 115
-558 126 -1111 133 -1577 20 l-127 -31 -37 29 c-28 21 -33 29 -21 31 21 4 23
22 2 22 -26 0 -93 31 -99 46 -3 9 -1 12 4 9 17 -11 50 -14 50 -6 0 5 -12 16
-26 26 -21 13 -24 19 -13 26 17 10 13 13 -38 27 -45 13 -101 72 -69 72 9 0 16
5 16 11 0 6 -9 8 -20 4 -14 -4 -42 5 -86 29 -43 24 -79 37 -107 37 -25 1 -50
9 -62 20 -64 57 -170 65 -263 18z m701 -1364 c50 -25 99 -45 109 -45 34 0 18
-17 -28 -30 -48 -14 -151 -72 -224 -127 -42 -33 -44 -33 -52 -13 -10 27 -28
174 -28 229 l0 44 66 -7 c49 -5 90 -18 157 -51z"/>
</g>
</svg>
