<?xml version="1.0" standalone="no"?>
<!DOCTYPE svg PUBLIC "-//W3C//DTD SVG 20010904//EN"
 "http://www.w3.org/TR/2001/REC-SVG-20010904/DTD/svg10.dtd">
<svg version="1.0" xmlns="http://www.w3.org/2000/svg"
 width="807.000000pt" height="807.000000pt" viewBox="0 0 807.000000 807.000000"
 preserveAspectRatio="xMidYMid meet">
<metadata>
Created by potrace 1.13, written by Peter Selinger 2001-2015
</metadata>
<g transform="translate(0.000000,807.000000) scale(0.100000,-0.100000)"
fill="#000000" stroke="none">
<path d="M5225 7986 c-22 -8 -60 -20 -85 -26 -108 -28 -310 -145 -295 -170 3
-5 1 -12 -5 -15 -15 -9 -66 -114 -75 -152 -5 -26 -12 -33 -31 -33 -14 0 -27
-6 -30 -13 -3 -9 -25 -14 -64 -15 -33 -1 -75 -8 -94 -16 -33 -14 -86 -72 -86
-94 0 -7 -18 -30 -39 -51 -22 -22 -33 -37 -25 -34 22 8 17 -12 -11 -45 -14
-17 -23 -36 -20 -44 3 -8 1 -27 -4 -41 -12 -31 -5 -34 21 -10 17 15 18 15 18
-1 0 -9 -18 -36 -40 -60 -46 -49 -48 -56 -19 -49 37 10 17 -15 -40 -49 -65
-39 -78 -61 -30 -51 41 8 38 1 -38 -81 l-61 -67 -144 26 c-209 38 -220 41
-369 100 -165 66 -210 77 -459 110 -439 58 -648 102 -758 159 -52 27 -211 165
-252 220 -54 70 -138 161 -151 161 -5 0 -15 11 -22 25 -31 61 -104 64 -100 4
1 -16 2 -36 2 -44 -2 -150 -5 -209 -9 -212 -3 -2 -18 -12 -33 -22 -34 -21 -33
-56 0 -71 29 -13 29 -32 1 -41 -47 -14 -51 -57 -8 -82 34 -19 39 -32 11 -32
-44 0 -54 -57 -13 -75 29 -13 28 -21 -3 -29 -28 -7 -35 -49 -11 -63 12 -7 13
-17 5 -53 -19 -83 -28 -185 -34 -390 -8 -239 -20 -347 -69 -606 -128 -672
-147 -750 -257 -1029 -39 -100 -43 -118 -43 -200 0 -79 3 -98 27 -147 53 -108
180 -197 338 -238 41 -11 137 -27 214 -35 77 -9 239 -27 360 -41 121 -14 276
-32 345 -40 69 -8 233 -17 365 -21 196 -5 242 -9 251 -21 9 -12 28 -14 97 -10
l86 6 6 -29 c4 -16 15 -33 24 -39 23 -12 26 -39 46 -335 16 -237 26 -335 50
-465 8 -41 26 -151 40 -245 14 -93 38 -219 53 -280 46 -189 27 -364 -63 -568
-104 -235 -119 -314 -112 -572 4 -153 9 -194 31 -275 14 -52 35 -127 45 -166
55 -204 65 -534 22 -717 -43 -182 -36 -256 30 -311 49 -41 92 -48 212 -32 105
14 165 12 314 -13 74 -12 366 -4 402 11 14 6 61 14 104 18 91 8 124 29 113 74
-5 21 -12 26 -39 26 -17 0 -50 12 -72 25 -24 15 -55 25 -77 25 -27 0 -91 27
-235 99 -214 108 -268 149 -340 257 l-36 54 6 143 c3 78 15 241 26 362 11 121
27 312 36 425 23 289 50 486 85 625 16 66 37 183 45 260 8 77 33 228 55 335
85 419 117 846 84 1118 l-5 42 -52 1 c-29 0 -61 4 -72 9 -12 5 13 6 63 3 96
-7 91 -17 65 128 l-17 95 -49 30 c-49 29 -147 126 -168 167 -7 12 18 -10 55
-50 36 -39 95 -89 129 -111 34 -22 80 -58 102 -81 42 -44 75 -54 75 -22 0 24
16 37 70 56 24 9 70 41 107 76 36 33 90 72 121 87 31 15 82 51 113 82 31 30
136 127 234 215 180 162 206 193 301 354 59 101 148 192 238 245 78 46 98 68
126 142 43 117 19 232 -88 418 -35 61 -84 147 -107 191 -45 82 -82 191 -70
203 4 4 140 6 303 5 189 -1 360 3 470 13 262 21 285 20 370 -21 100 -48 164
-65 243 -65 36 0 86 -7 110 -16 71 -25 189 -16 189 15 0 17 -51 42 -120 60
-39 9 -73 20 -76 24 -11 11 100 -5 115 -17 7 -6 30 -12 50 -13 20 -1 50 -5 66
-8 17 -3 37 -1 45 4 13 9 13 12 0 24 -16 15 -120 70 -210 111 -94 42 -144 59
-175 57 -16 0 -84 4 -150 10 -126 12 -234 35 -453 100 -254 74 -408 94 -504
64 -36 -11 -62 -12 -105 -5 -32 6 -78 10 -103 10 -29 0 -66 11 -105 30 -33 17
-68 30 -78 30 -26 0 -31 24 -17 77 19 67 52 100 118 119 164 44 183 62 188
166 9 193 14 242 23 251 20 20 12 56 -19 79 -33 24 -37 39 -15 58 9 8 12 17 6
24 -4 6 -11 32 -13 57 -3 25 -18 73 -33 105 -15 32 -29 79 -31 102 -6 80 -99
194 -203 246 -63 33 -168 43 -226 22z m-350 -916 c4 -17 11 -30 16 -30 6 0 7
6 4 13 -4 6 7 -4 24 -23 26 -29 31 -43 31 -85 0 -53 -16 -125 -28 -125 -4 0
-15 7 -26 15 -10 7 -42 17 -72 21 -30 3 -51 10 -48 15 3 5 0 9 -5 9 -6 0 -11
-5 -11 -12 0 -6 -2 -9 -5 -7 -2 3 4 29 15 57 11 29 21 62 21 75 1 17 2 18 6 5
7 -27 20 -22 27 10 27 110 38 123 51 62z m-2401 -76 c33 -9 156 -58 271 -109
364 -162 447 -190 680 -229 149 -26 151 -26 330 -115 197 -98 326 -149 455
-181 149 -36 160 -40 197 -73 20 -17 42 -46 49 -64 19 -44 18 -113 -2 -127
-13 -10 -15 -53 -18 -306 -2 -312 -12 -393 -55 -479 -22 -42 -74 -91 -97 -91
-8 0 -22 -9 -31 -19 -9 -11 -21 -17 -27 -13 -6 3 -55 7 -109 9 -96 2 -98 2
-107 -23 -6 -14 -11 -60 -11 -102 -1 -68 -2 -72 -10 -37 -4 22 -5 65 -2 96 l5
57 -38 13 c-22 7 -81 12 -134 12 -190 -1 -334 -60 -388 -158 -6 -11 -12 -15
-12 -9 0 9 -11 9 -37 3 -21 -5 -70 -9 -109 -9 -80 0 -88 -5 -104 -66 l-10 -39
4 36 4 36 -251 13 c-361 19 -405 12 -771 -129 -72 -28 -112 -39 -118 -33 -7 7
8 39 45 94 111 167 146 283 154 508 4 117 0 204 -16 355 -31 303 -34 377 -22
535 14 176 19 186 116 217 92 31 145 83 145 145 0 36 -42 116 -98 191 -84 111
-84 107 -6 107 36 0 94 -7 128 -16z"/>
</g>
</svg>
