<?xml version="1.0" standalone="no"?>
<!DOCTYPE svg PUBLIC "-//W3C//DTD SVG 20010904//EN"
 "http://www.w3.org/TR/2001/REC-SVG-20010904/DTD/svg10.dtd">
<svg version="1.0" xmlns="http://www.w3.org/2000/svg"
 width="609.000000pt" height="609.000000pt" viewBox="0 0 609.000000 609.000000"
 preserveAspectRatio="xMidYMid meet">
<metadata>
Created by potrace 1.13, written by Peter Selinger 2001-2015
</metadata>
<g transform="translate(0.000000,609.000000) scale(0.100000,-0.100000)"
fill="#000000" stroke="none">
<path d="M1677 5196 c-17 -13 -17 -17 -3 -49 9 -22 12 -51 9 -77 -4 -26 1 -63
12 -100 22 -73 14 -169 -15 -177 -24 -6 -31 -37 -14 -60 7 -10 14 -28 14 -40
0 -19 -4 -21 -35 -16 -30 5 -36 2 -46 -19 -8 -19 -8 -31 0 -46 10 -19 8 -22
-14 -28 -33 -8 -56 -41 -49 -70 4 -16 0 -24 -14 -28 -23 -8 -45 -47 -40 -72 1
-10 21 -27 43 -38 22 -12 41 -29 43 -39 3 -14 -4 -17 -36 -17 -26 0 -45 -6
-56 -19 -17 -19 -16 -21 24 -46 41 -26 42 -28 37 -68 -18 -131 -109 -377 -220
-597 -49 -96 -145 -291 -213 -433 -100 -208 -150 -297 -251 -450 -150 -228
-167 -268 -168 -392 0 -83 3 -95 35 -159 63 -125 123 -178 450 -394 546 -361
795 -516 965 -599 104 -51 387 -142 417 -135 4 1 9 -6 12 -16 7 -20 77 -66
126 -80 19 -6 83 -13 142 -16 59 -2 116 -9 127 -15 29 -16 198 -14 208 2 4 6
13 41 19 77 l12 65 1 -103 c0 -57 6 -112 11 -122 10 -18 13 -19 48 -5 20 8
105 28 187 44 268 53 329 68 366 90 20 12 74 28 120 35 123 20 342 74 415 101
35 13 89 40 121 61 66 42 342 310 439 425 48 58 76 82 115 98 64 28 137 94
160 146 57 130 23 256 -139 527 -89 148 -96 167 -112 286 -13 99 -17 110 -41
123 -17 8 -18 17 -13 67 16 145 96 385 147 441 12 12 49 37 82 53 128 64 160
106 125 163 -11 18 -19 46 -18 62 1 16 -2 35 -7 43 -5 8 -8 24 -7 36 2 11 -6
31 -17 45 -19 24 -19 24 1 57 19 31 19 34 3 52 -10 11 -27 22 -39 26 -85 27
-107 45 -146 128 -21 45 -61 106 -87 136 -27 30 -58 69 -68 87 -25 39 -81 85
-143 115 -39 19 -63 23 -147 23 -92 0 -106 -3 -167 -32 -89 -42 -182 -106
-240 -165 -27 -27 -48 -52 -49 -56 -1 -11 -6 -32 -21 -91 -16 -58 -30 -70
-106 -91 -52 -13 -106 -60 -134 -114 -17 -33 -22 -61 -23 -143 -1 -56 2 -100
6 -97 5 3 9 -2 9 -10 0 -9 -3 -16 -6 -16 -24 0 -323 158 -367 194 -231 188
-379 281 -713 449 -132 67 -241 128 -257 145 -33 34 -47 93 -67 281 -9 80 -20
127 -36 160 -13 25 -24 56 -24 69 0 31 -17 62 -35 62 -8 0 -15 12 -17 28 -2
16 -12 31 -25 37 -13 5 -23 18 -23 28 0 25 -60 97 -80 97 -10 0 -23 7 -30 16
-25 29 -47 35 -65 17 -15 -14 -16 -38 -9 -228 7 -211 7 -213 -15 -224 -25 -14
-27 -28 -6 -51 8 -9 12 -25 8 -38 -4 -18 -12 -22 -31 -20 -24 3 -29 13 -59
105 -18 57 -40 148 -48 203 -18 118 -38 172 -75 203 -19 15 -32 41 -44 88 -26
100 -79 143 -129 105z m208 -1313 c-15 -54 -49 -155 -75 -225 -27 -70 -56
-161 -65 -202 -18 -78 -31 -105 -19 -38 24 139 57 281 84 367 35 108 91 227
97 208 3 -7 -8 -56 -22 -110z m506 29 c24 -21 100 -83 169 -137 69 -55 160
-129 203 -166 61 -53 96 -74 170 -103 50 -20 104 -44 119 -53 62 -42 274 -206
408 -317 80 -66 181 -143 226 -172 91 -59 133 -103 135 -142 5 -110 -1 -286
-10 -295 -15 -15 -13 -72 4 -192 17 -119 19 -245 4 -299 -14 -51 -48 -83 -95
-91 -22 -3 -47 -11 -57 -16 -13 -7 -23 -6 -34 3 -9 7 -26 11 -39 10 -13 -2
-24 1 -24 7 0 6 -10 11 -22 11 -13 0 -46 9 -74 20 -49 18 -53 18 -67 2 -8 -9
-29 -60 -46 -112 -22 -69 -28 -83 -24 -50 3 25 14 71 25 104 18 55 18 59 2 77
-37 41 -222 89 -343 89 -114 0 -242 -38 -279 -83 -10 -11 -23 -12 -65 -5 -80
15 -150 41 -354 132 -205 91 -310 128 -418 145 -71 11 -270 31 -314 31 -38 0
-12 21 100 81 116 62 200 142 268 256 85 143 104 214 146 548 37 295 67 451
110 588 34 106 41 120 73 142 20 14 42 25 48 25 6 0 31 -17 55 -38z"/>
</g>
</svg>
