<?xml version="1.0" standalone="no"?>
<!DOCTYPE svg PUBLIC "-//W3C//DTD SVG 20010904//EN"
 "http://www.w3.org/TR/2001/REC-SVG-20010904/DTD/svg10.dtd">
<svg version="1.0" xmlns="http://www.w3.org/2000/svg"
 width="877.000000pt" height="877.000000pt" viewBox="0 0 877.000000 877.000000"
 preserveAspectRatio="xMidYMid meet">
<metadata>
Created by potrace 1.13, written by Peter Selinger 2001-2015
</metadata>
<g transform="translate(0.000000,877.000000) scale(0.100000,-0.100000)"
fill="#000000" stroke="none">
<path d="M842 6022 c-14 -11 -35 -17 -52 -14 -15 2 -31 -1 -34 -7 -4 -6 -19
-11 -33 -11 -15 0 -34 -7 -43 -15 -15 -13 -20 -13 -49 1 -28 14 -34 14 -54 1
-13 -8 -29 -34 -36 -56 -13 -44 -62 -107 -89 -115 -9 -3 -37 -10 -61 -16 -33
-9 -62 -29 -110 -75 -36 -34 -76 -66 -88 -69 -11 -4 -33 -22 -48 -42 -101
-132 -113 -336 -27 -451 64 -85 145 -174 198 -217 52 -43 64 -47 227 -71 24
-4 37 -11 37 -21 0 -9 14 -49 30 -91 32 -79 39 -157 21 -221 -6 -20 -6 -32 0
-32 5 0 9 5 9 10 0 6 5 10 11 10 6 0 8 -9 4 -20 -8 -25 3 -26 21 -2 19 24 18
-5 -1 -38 -20 -35 -20 -94 0 -86 20 7 19 -3 -6 -60 l-20 -48 21 19 c26 24 35
14 21 -26 -15 -43 -15 -142 1 -137 6 2 16 25 23 52 7 26 18 53 24 59 10 9 11
5 4 -18 -12 -46 -8 -93 18 -182 22 -78 39 -106 39 -65 0 10 7 27 15 38 14 18
14 17 5 -9 -9 -25 -6 -34 19 -65 15 -21 32 -47 35 -60 4 -12 10 -20 14 -18 4
2 7 -87 7 -197 1 -132 7 -259 20 -367 10 -91 18 -183 17 -205 -1 -22 -2 -80
-3 -130 -1 -87 -2 -91 -35 -127 -54 -60 -36 -115 22 -69 19 15 41 21 74 21 42
0 49 -3 54 -24 8 -33 45 -45 63 -20 7 10 13 25 13 35 0 10 10 19 25 21 21 4
28 0 41 -28 9 -18 22 -35 30 -38 25 -10 54 12 54 41 0 23 3 25 32 19 18 -3 42
-15 53 -26 28 -26 62 -26 70 1 6 17 11 19 38 12 58 -15 127 -8 149 15 30 30
17 48 -39 57 -31 4 -98 33 -193 85 -80 43 -162 83 -183 90 -21 7 -41 19 -44
27 -12 30 21 208 132 723 39 177 48 238 51 345 4 115 10 155 58 350 30 121 59
246 66 278 6 32 14 56 17 53 3 -2 0 -27 -6 -54 -8 -39 -6 -67 10 -145 18 -89
31 -131 106 -332 23 -61 27 -93 34 -246 11 -252 30 -355 120 -644 61 -200 78
-285 72 -372 -6 -90 17 -127 102 -163 57 -23 68 -24 205 -20 165 6 422 6 494
1 33 -3 51 1 57 10 11 19 3 25 -61 43 -30 9 -95 32 -145 50 -156 60 -188 68
-290 76 -55 4 -112 14 -128 21 -48 22 -50 50 -43 554 6 406 5 469 -9 535 -41
186 -43 212 -34 447 4 125 11 247 15 270 6 42 6 43 -25 49 -64 13 -20 15 76 4
186 -21 547 -98 710 -150 113 -36 158 -63 248 -149 39 -37 94 -82 123 -100 35
-23 54 -42 58 -60 10 -47 13 -51 34 -51 34 0 85 26 131 66 l44 38 -45 -47
c-44 -47 -44 -47 -31 -84 50 -139 202 -263 376 -308 70 -18 207 -20 271 -4 28
7 54 23 69 41 15 18 25 24 25 15 0 -9 15 -17 42 -21 23 -4 134 -38 247 -75
351 -117 616 -176 933 -206 168 -16 248 -37 321 -81 23 -15 112 -97 197 -183
131 -134 170 -166 250 -213 196 -115 310 -148 511 -148 221 0 533 -44 778
-110 94 -25 104 -34 97 -79 -18 -114 -18 -116 4 -164 32 -67 63 -81 165 -74
44 4 112 16 150 27 84 26 205 28 411 8 161 -15 249 -15 268 1 8 7 36 9 77 4
147 -15 210 3 217 62 4 32 -11 45 -52 45 -16 0 -43 8 -60 19 -17 10 -56 26
-86 36 -84 27 -290 141 -399 221 -136 101 -175 123 -355 204 -99 44 -207 84
-285 105 -234 62 -593 197 -946 355 -248 111 -332 156 -435 232 -86 64 -256
158 -285 158 -7 0 -61 30 -121 66 -118 71 -261 146 -364 189 -36 15 -141 69
-235 120 -339 185 -489 253 -695 314 -196 58 -188 57 -193 29 -4 -22 -4 -22
-4 2 -1 14 -1 33 -2 42 -1 11 -27 31 -73 54 -40 20 -110 60 -155 90 -44 30
-88 54 -95 54 -17 0 -39 -23 -61 -65 -27 -51 -19 -19 10 40 35 71 27 85 -59
106 -82 20 -152 56 -308 158 -89 59 -145 88 -195 102 -158 46 -190 64 -320
179 -44 40 -106 89 -137 111 -36 25 -66 55 -78 79 -23 46 -78 103 -119 124
-43 23 -121 29 -187 16 -32 -7 -140 -41 -239 -77 -210 -76 -380 -124 -520
-148 -55 -9 -107 -22 -115 -29 -9 -8 -24 -10 -40 -5 -14 4 -70 8 -125 8 -133
2 -230 17 -285 44 -41 20 -48 29 -76 97 -39 95 -70 130 -115 130 -19 0 -44 -9
-57 -18z m224 -804 c-53 -74 -88 -193 -101 -340 l-7 -77 -35 34 c-20 19 -39
35 -42 35 -3 0 -5 27 -4 61 1 56 4 63 45 107 24 26 54 65 68 87 28 47 79 115
87 115 3 0 -2 -10 -11 -22z"/>
</g>
</svg>
