<?xml version="1.0" standalone="no"?>
<!DOCTYPE svg PUBLIC "-//W3C//DTD SVG 20010904//EN"
 "http://www.w3.org/TR/2001/REC-SVG-20010904/DTD/svg10.dtd">
<svg version="1.0" xmlns="http://www.w3.org/2000/svg"
 width="639.000000pt" height="639.000000pt" viewBox="0 0 639.000000 639.000000"
 preserveAspectRatio="xMidYMid meet">
<metadata>
Created by potrace 1.13, written by Peter Selinger 2001-2015
</metadata>
<g transform="translate(0.000000,639.000000) scale(0.100000,-0.100000)"
fill="#000000" stroke="none">
<path d="M2520 5515 c-25 -8 -54 -22 -65 -32 -32 -28 -98 -77 -123 -90 -18
-10 -29 -10 -45 -2 -29 16 -101 13 -139 -7 -64 -32 -102 -99 -117 -207 -12
-89 -29 -134 -60 -161 -24 -22 -28 -41 -6 -32 33 12 12 -14 -40 -49 -59 -41
-70 -59 -31 -49 43 11 36 -12 -20 -60 -57 -50 -99 -117 -89 -144 5 -12 13 -9
43 20 94 88 141 106 63 24 -28 -30 -51 -59 -51 -63 0 -5 27 -6 60 -3 33 3 60
5 60 4 0 -2 -26 -18 -57 -38 -32 -19 -65 -47 -75 -63 -13 -23 -58 -131 -58
-140 0 -11 28 1 49 21 15 13 40 31 56 41 20 12 14 4 -17 -24 -48 -42 -62 -69
-32 -57 12 4 14 1 9 -14 -4 -11 -2 -20 4 -20 6 0 11 5 11 12 0 6 3 9 6 5 3 -3
-6 -36 -21 -72 -14 -37 -24 -69 -22 -71 2 -3 22 5 43 18 21 12 34 17 30 10
-11 -17 4 -15 26 5 15 13 13 5 -8 -42 -34 -73 -41 -169 -25 -298 20 -152 49
-251 138 -474 133 -335 135 -348 141 -716 2 -170 1 -324 -3 -343 -3 -20 -21
-52 -40 -72 -19 -22 -36 -54 -40 -76 -4 -21 -21 -54 -38 -73 -24 -27 -28 -38
-20 -51 15 -25 90 -60 163 -77 l65 -15 -60 6 c-33 4 -69 7 -79 8 -36 2 -99
-143 -127 -292 -16 -83 -6 -289 16 -362 74 -237 243 -399 482 -460 123 -32
449 -43 562 -19 80 17 166 14 336 -11 160 -24 198 -24 665 1 219 12 196 12
390 4 109 -4 176 -11 226 -25 189 -53 303 -6 365 151 21 52 27 59 51 59 29 0
62 26 52 42 -3 5 3 16 15 24 13 10 21 26 21 44 0 19 6 31 19 35 30 9 44 32 37
60 -9 37 -89 85 -140 85 -23 1 -68 7 -101 15 -33 8 -86 15 -118 15 -52 0 -58
2 -67 25 -6 17 -6 33 2 51 9 20 9 30 -1 46 -11 17 -9 23 9 43 29 31 19 62 -26
81 -39 16 -107 18 -134 4 -11 -6 -62 -19 -114 -29 -51 -11 -105 -26 -117 -35
-20 -13 -40 -13 -129 -5 -76 7 -129 7 -190 -2 -110 -15 -125 -14 -163 15 -18
13 -95 58 -172 101 -162 90 -199 114 -278 184 -33 29 -85 65 -117 81 -36 18
-59 37 -63 51 -5 18 -11 21 -39 15 -18 -3 -53 -8 -78 -11 -38 -4 -34 -2 23 14
153 43 163 56 113 139 -44 73 -73 170 -87 291 -13 112 -7 196 22 337 l21 102
82 -51 c89 -55 137 -90 209 -153 58 -51 120 -74 204 -74 55 0 67 4 95 29 30
27 33 34 36 104 6 120 -26 206 -120 319 l-39 48 22 101 c19 83 33 118 83 202
121 207 137 249 96 262 -29 9 -60 -14 -105 -79 -21 -31 -41 -56 -45 -56 -4 0
6 48 22 108 34 131 36 177 7 192 -27 15 -42 2 -81 -68 -17 -29 -32 -52 -33
-50 -1 2 2 34 7 73 11 83 4 131 -22 145 -15 8 -23 6 -39 -12 -20 -20 -81 -155
-81 -177 0 -6 -3 -11 -8 -11 -4 0 -8 28 -9 62 -2 51 -7 66 -25 79 -29 22 -42
16 -62 -29 -24 -56 -66 -235 -66 -284 -1 -24 -7 -56 -13 -72 l-13 -30 -23 37
c-12 20 -29 37 -36 37 -8 0 -31 11 -52 25 -30 21 -40 36 -50 77 -21 82 -77
163 -228 328 -47 52 -103 121 -123 152 -20 31 -46 61 -58 66 -11 6 -28 26 -38
46 -14 30 -15 42 -5 81 7 26 19 49 27 53 8 3 43 -2 78 -11 122 -33 184 -13
184 60 0 17 8 41 18 54 37 52 54 96 47 128 -6 28 -3 31 29 45 43 18 46 42 14
94 -20 33 -20 35 -4 48 24 17 27 82 11 209 -7 55 -12 132 -12 170 2 66 -1 75
-43 149 -85 148 -144 176 -390 182 -117 3 -166 0 -200 -11z"/>
</g>
</svg>
