<?xml version="1.0" standalone="no"?>
<!DOCTYPE svg PUBLIC "-//W3C//DTD SVG 20010904//EN"
 "http://www.w3.org/TR/2001/REC-SVG-20010904/DTD/svg10.dtd">
<svg version="1.0" xmlns="http://www.w3.org/2000/svg"
 width="672.000000pt" height="672.000000pt" viewBox="0 0 672.000000 672.000000"
 preserveAspectRatio="xMidYMid meet">
<metadata>
Created by potrace 1.13, written by Peter Selinger 2001-2015
</metadata>
<g transform="translate(0.000000,672.000000) scale(0.100000,-0.100000)"
fill="#000000" stroke="none">
<path d="M3275 5664 c-32 -8 -68 -23 -80 -32 -11 -10 -37 -29 -58 -43 -53 -34
-91 -100 -117 -203 -18 -73 -20 -96 -11 -130 5 -23 13 -65 16 -95 5 -45 4 -53
-9 -48 -30 12 -40 -19 -27 -92 13 -84 42 -154 71 -174 13 -9 27 -37 37 -73 8
-33 28 -82 44 -110 33 -59 35 -78 12 -135 -19 -48 -119 -129 -160 -129 -25 0
-72 -21 -113 -52 -14 -10 -72 -30 -129 -44 -101 -25 -213 -73 -274 -118 -16
-11 -51 -54 -77 -94 -46 -68 -58 -97 -95 -235 -14 -49 -27 -70 -90 -136 -56
-59 -84 -98 -114 -162 -26 -56 -61 -108 -105 -158 -77 -86 -106 -160 -106
-268 0 -58 3 -68 28 -93 23 -23 41 -30 98 -36 148 -18 449 0 682 41 54 9 79
10 84 2 13 -21 40 -198 40 -264 0 -43 -6 -82 -16 -106 -10 -23 -14 -47 -10
-60 14 -44 4 -131 -21 -180 -17 -33 -25 -65 -25 -100 0 -67 -39 -194 -78 -253
-24 -36 -29 -51 -22 -65 14 -25 40 -31 165 -38 l110 -7 -70 -7 c-38 -4 -95 -3
-125 2 -48 8 -57 7 -70 -9 -18 -22 -56 -38 -87 -35 -32 2 -29 -11 5 -23 15 -6
36 -17 47 -26 11 -9 -10 -2 -47 15 -67 30 -70 31 -220 30 -174 -2 -383 -15
-543 -35 -60 -8 -152 -17 -203 -21 -158 -11 -253 -46 -349 -130 -57 -48 -110
-157 -123 -252 -26 -188 50 -287 260 -339 61 -15 119 -18 310 -19 141 -1 265
-7 310 -14 52 -9 115 -11 205 -7 104 6 136 4 160 -7 22 -11 86 -16 240 -20
116 -3 276 -11 356 -18 128 -10 153 -10 200 4 30 9 88 19 129 22 41 3 108 8
148 12 66 5 77 3 121 -21 62 -33 135 -34 240 -4 74 21 82 21 326 9 384 -18
461 -14 734 33 48 9 181 20 296 25 165 7 224 13 275 30 172 54 241 209 176
394 -39 109 -89 167 -188 215 -110 54 -193 76 -433 112 -336 51 -530 50 -635
-2 -27 -14 -47 -21 -44 -16 3 4 21 16 41 27 l36 18 -100 5 c-98 6 -145 20
-171 51 -9 10 -38 13 -124 11 -62 -1 -93 0 -68 2 92 9 184 25 197 35 8 7 10
17 4 28 -32 58 -81 229 -81 278 0 44 -7 67 -31 110 -27 48 -30 57 -19 82 9 23
8 39 -5 84 -9 31 -16 78 -15 104 2 69 2 121 -1 136 -2 14 29 188 34 194 3 2
58 -5 123 -17 280 -48 636 -66 709 -36 49 21 58 45 53 145 -6 112 -38 188
-113 260 -29 28 -78 93 -108 144 -31 50 -83 123 -116 160 -73 81 -82 98 -110
200 -12 43 -32 100 -46 126 -28 57 -106 157 -152 195 -42 36 -128 74 -194 86
-68 13 -149 39 -149 49 0 10 -87 51 -110 51 -11 0 -20 6 -21 13 -10 150 -15
170 -59 220 -43 49 -50 63 -22 47 9 -5 34 -16 55 -24 l37 -15 -6 27 c-4 15
-17 49 -30 77 -13 27 -22 51 -20 53 6 6 66 -82 78 -115 7 -20 19 -33 29 -33
27 0 14 72 -28 158 -20 40 -33 75 -30 79 4 3 18 -2 32 -11 31 -21 31 -15 0 33
-24 35 -25 41 -15 89 6 28 10 66 8 84 -2 28 -7 33 -26 31 -21 -3 -22 0 -17 35
4 20 11 53 16 72 5 19 9 62 9 95 0 52 -7 73 -48 155 -57 114 -95 147 -213 185
-91 29 -171 31 -264 9z m-574 -2079 c29 -62 37 -89 31 -102 -5 -10 -15 -42
-22 -70 l-12 -53 -41 5 c-140 19 -203 29 -210 35 -5 4 28 46 72 94 45 48 93
107 107 132 14 24 28 44 31 44 2 0 22 -38 44 -85z m1449 18 c18 -32 70 -95
113 -140 44 -46 78 -85 76 -87 -2 -1 -44 -8 -94 -15 -49 -7 -100 -15 -111 -17
-19 -5 -22 0 -28 38 -4 24 -18 70 -31 103 -30 72 -31 87 -6 109 11 10 22 28
25 42 4 13 10 24 14 24 4 0 23 -26 42 -57z"/>
</g>
</svg>
